<?xml version="1.0" encoding="utf-8"?>
<!-- Generator: Adobe Illustrator 25.2.0, SVG Export Plug-In . SVG Version: 6.00 Build 0)  -->
<svg version="1.1" id="Ebene_1" xmlns="http://www.w3.org/2000/svg" xmlns:xlink="http://www.w3.org/1999/xlink" x="0px" y="0px"
	 width="404.954px" height="110px" viewBox="0 0 404.954 110" enable-background="new 0 0 404.954 110" xml:space="preserve">
<g>
	<path fill="#8EBAE5" d="M317.975,86.192h4.445V76.87h2.376c1.791,0,2.563,1.05,2.625,2.779l0.123,4.229
		c0.031,0.863,0.124,1.697,0.556,2.315h4.815v-0.185c-0.833-0.433-0.957-1.636-0.987-3.951c-0.062-4.662-0.525-6.329-3.55-6.73
		v-0.062c2.5-0.524,3.674-2.5,3.674-5.433c0-3.767-2.223-5.681-5.866-5.681h-8.211V86.192z M322.42,67.424h2.099
		c2.006,0,3.088,1.019,3.088,3.057c0,2.376-1.205,3.302-3.335,3.302h-1.852V67.424z"/>
	<path fill="#8EBAE5" d="M252.438,64.151v15.373c0,5.896,3.426,7.1,7.038,7.1c3.611,0,7.039-1.481,7.039-7.1V64.151h-4.445v15.373
		c0,2.192-0.525,3.828-2.594,3.828c-2.068,0-2.593-1.636-2.593-3.828V64.151H252.438z"/>
</g>
<polygon fill="#8EBAE5" points="267.603,64.151 267.603,86.192 271.678,86.192 271.678,70.758 271.739,70.758 277.172,86.192 
	282.235,86.192 282.235,64.151 278.16,64.151 278.16,79.246 278.098,79.246 272.727,64.151 "/>
<rect x="283.378" y="64.151" fill="#8EBAE5" width="4.445" height="22.041"/>
<polygon fill="#8EBAE5" points="288.128,64.151 293.19,86.192 298.901,86.192 303.963,64.151 299.364,64.151 296.092,80.451 
	296,80.451 292.882,64.151 "/>
<polygon fill="#8EBAE5" points="304.359,64.151 304.359,86.192 316.985,86.192 316.985,82.55 308.804,82.55 308.804,76.622 
	316.214,76.622 316.214,72.98 308.804,72.98 308.804,67.794 316.676,67.794 316.676,64.151 "/>
<g>
	<path fill="#8EBAE5" d="M332.42,79.309v0.895c0,4.076,1.975,6.422,7.008,6.422c4.815,0,7.655-2.1,7.655-6.762
		c0-2.685-0.865-4.382-4.199-5.834l-3.426-1.481c-1.883-0.803-2.284-1.636-2.284-2.994c0-1.296,0.525-2.563,2.531-2.563
		c1.697,0,2.408,1.204,2.408,3.273h4.26v-0.618c0-4.229-2.872-5.927-6.823-5.927c-4.198,0-6.821,2.192-6.821,6.482
		c0,3.674,1.821,5.311,5.772,6.668c2.933,1.019,3.952,1.76,3.952,3.767c0,1.852-1.298,2.716-2.655,2.716
		c-2.347,0-2.933-1.327-2.933-3.395v-0.649H332.42z"/>
</g>
<rect x="347.663" y="64.151" fill="#8EBAE5" width="4.445" height="22.041"/>
<polygon fill="#8EBAE5" points="375.198,64.151 372.111,72.671 372.049,72.671 369.148,64.151 352.692,64.151 352.692,67.794 
	357.507,67.794 357.507,86.192 361.953,86.192 361.953,67.794 365.702,67.794 369.857,77.518 369.857,86.192 374.303,86.192 
	374.303,77.518 380.014,64.151 "/>
<g>
	<path fill="#00549F" d="M213.388,62.147h-0.282h-7.084v-2.495V40.171v-0.163h7.069h0.015h4.995c3.276-0.001,6.1,2.12,7.022,4.931
		c0.853,2.605,0.124,5.434-1.802,7.449c0.256,0.693,0.506,1.236,0.743,1.859c0.535,1.233,1.024,2.466,1.559,3.683l1.753,4.217
		h-0.045h-7.424c0,0.004-0.06-0.178-0.119-0.253c-0.297-0.652-0.565-1.351-0.861-2.004l-1.797-4.262
		c-0.713-1.722-1.426-3.35-2.138-5.072c0.889-0.024,1.554,0.143,2.412-0.252c0.604-0.297,1.518-1.035,1.542-2.449
		c-0.024-0.701-0.218-1.232-0.681-1.784c-0.466-0.514-1.139-0.895-2.016-0.907c0,0-2.862-0.001-2.861,0V62.147z"/>
	<path fill="#00549F" d="M290.324,40.008v22.139h-5.751h-1.615V53.12h-0.687h-4.409h-0.061v9.027c-1.336,0-2.776-0.015-4.112,0
		h-3.253V45.131h-5.152v0.534v1.603v7.291v7.588h-0.059h-7.307V52.97v-0.356v-7.483h-5.196v8.033v8.983h-7.587
		c-1.322-3.192-2.717-6.414-4.009-9.592c-0.149-0.668-0.297-1.337-0.49-1.99v11.582h-7.603c-1.507-3.504-2.955-6.938-4.457-10.494
		c-0.521-1.232-0.948-2.234-1.486-3.515l-0.074-0.168l-1.17-2.747L224.17,41.3c-0.147-0.445-0.384-0.847-0.534-1.292h7.586
		c1.559,3.786,3.132,7.528,4.766,11.255l0.045,0.089c-0.059-0.431-0.194-0.98-0.268-1.395v-6.608c0.015-1.055,0-2.258,0-3.341h7.602
		c0.096,0.241,0.149,0.371,0.223,0.565c0.891,2.093,1.738,4.172,2.629,6.25l1.99,4.529c-0.045-0.476-0.149-0.935-0.209-1.395v-9.949
		h0.61h5.167h18.709h5.315v1.381v6.608h0.357h4.8v-7.989h3.842H290.324z"/>
</g>
<path fill="#8EBAE5" d="M311.689,53.805l2.14-9.954h0.062l2.14,9.954H311.689z M296.93,53.805l2.139-9.954h0.062l2.14,9.954H296.93z
	 M316.62,40.006h-5.52l-4.62,17.451l-4.62-17.451h-5.52l-5.861,22.141h4.652l1.023-4.682h5.893l1.022,4.682h6.822l1.023-4.682h5.892
	l1.023,4.682h4.652L316.62,40.006z"/>
<g>
	<path fill="#8EBAE5" d="M335.779,47.56c0-3.21-0.462-7.872-6.822-7.872c-6.667,0-7.502,4.754-7.502,11.453
		c0,6.698,0.835,11.452,7.502,11.452c5.834,0,7.007-4.105,7.007-8.859h-4.445c0,4.754-1.173,5.587-2.778,5.587
		c-1.914,0-2.84-1.204-2.84-7.872c0-6.235,0.525-8.488,2.778-8.488c2.006,0,2.655,1.389,2.655,4.599H335.779z"/>
</g>
<polygon fill="#8EBAE5" points="336.843,62.147 341.307,62.147 341.307,52.318 346.517,52.318 346.517,62.147 350.982,62.147 
	350.982,40.008 346.517,40.008 346.517,48.474 341.307,48.474 341.307,40.008 336.843,40.008 "/>
<polygon fill="#8EBAE5" points="351.95,40.004 351.95,62.147 364.635,62.147 364.635,58.488 356.416,58.488 356.416,52.533 
	363.86,52.533 363.86,48.873 356.416,48.873 356.416,43.663 364.324,43.663 364.324,40.004 "/>
<polygon fill="#8EBAE5" points="365.297,40.008 365.297,62.147 369.39,62.147 369.39,46.643 369.451,46.643 374.909,62.147 
	379.994,62.147 379.994,40.008 375.901,40.008 375.901,55.17 375.839,55.17 370.444,40.008 "/>
<rect x="191.012" y="39.978" fill="#00549F" width="1.023" height="46.398"/>
<g>
	<path fill="#00549F" d="M150.145,84.575v0.195c0,0.266,0.031,0.506,0.092,0.721c0.062,0.215,0.169,0.399,0.323,0.552
		c0.153,0.154,0.36,0.271,0.619,0.353s0.59,0.123,0.992,0.123c0.293,0,0.567-0.036,0.818-0.107c0.253-0.072,0.47-0.179,0.65-0.323
		c0.181-0.143,0.322-0.324,0.424-0.542c0.103-0.218,0.154-0.47,0.154-0.757c0-0.416-0.092-0.745-0.276-0.987
		c-0.184-0.242-0.498-0.438-0.941-0.588l-0.85-0.287c-0.238-0.074-0.4-0.166-0.486-0.276c-0.084-0.109-0.127-0.232-0.127-0.368
		c0-0.198,0.066-0.346,0.199-0.445c0.133-0.099,0.289-0.149,0.466-0.149c0.232,0,0.393,0.067,0.485,0.2
		c0.093,0.133,0.139,0.343,0.139,0.629h1.268v-0.225c0-0.498-0.153-0.883-0.46-1.156c-0.307-0.273-0.781-0.409-1.422-0.409
		c-0.361,0-0.67,0.044-0.926,0.133c-0.256,0.089-0.465,0.207-0.629,0.358c-0.164,0.15-0.283,0.325-0.358,0.527
		c-0.075,0.201-0.113,0.414-0.113,0.639c0,0.389,0.099,0.708,0.297,0.957c0.198,0.248,0.491,0.442,0.88,0.578l0.992,0.358
		c0.137,0.054,0.256,0.128,0.358,0.22s0.154,0.227,0.154,0.404c0,0.218-0.065,0.381-0.195,0.491
		c-0.129,0.109-0.303,0.163-0.522,0.163c-0.238,0-0.42-0.073-0.547-0.22c-0.126-0.146-0.189-0.339-0.189-0.578v-0.184H150.145z
		 M149.538,82.857c0-0.655-0.165-1.174-0.496-1.555c-0.331-0.382-0.824-0.573-1.479-0.573c-0.327,0-0.627,0.044-0.9,0.133
		c-0.272,0.089-0.507,0.243-0.706,0.465c-0.197,0.222-0.351,0.519-0.46,0.89c-0.109,0.372-0.164,0.841-0.164,1.407
		c0,0.552,0.045,1.015,0.133,1.386c0.089,0.371,0.22,0.668,0.394,0.89c0.174,0.222,0.393,0.381,0.655,0.476
		c0.263,0.095,0.572,0.143,0.926,0.143c0.75,0,1.287-0.194,1.611-0.583c0.324-0.389,0.486-0.944,0.486-1.668h-1.351
		c0,0.451-0.054,0.778-0.163,0.983c-0.109,0.204-0.283,0.306-0.522,0.306c-0.157,0-0.285-0.035-0.384-0.107
		c-0.098-0.072-0.175-0.186-0.23-0.343c-0.054-0.156-0.092-0.356-0.112-0.598c-0.021-0.243-0.031-0.534-0.031-0.875
		c0-0.314,0.01-0.59,0.031-0.828c0.02-0.239,0.058-0.435,0.112-0.589c0.055-0.153,0.135-0.269,0.241-0.348
		c0.106-0.078,0.247-0.117,0.424-0.117c0.13,0,0.237,0.033,0.322,0.097c0.086,0.064,0.151,0.15,0.195,0.256
		c0.045,0.105,0.075,0.225,0.092,0.358c0.017,0.133,0.025,0.264,0.025,0.394H149.538z M143.065,86.376h1.412v-5.504h-1.412V86.376z
		 M143.065,80.197h1.412V78.99h-1.412V80.197z M140.163,80.872h-0.716v0.962h0.716v3.151c0,0.279,0.016,0.511,0.051,0.695
		c0.034,0.184,0.097,0.333,0.189,0.445c0.092,0.113,0.223,0.192,0.394,0.241c0.17,0.048,0.395,0.071,0.675,0.071
		c0.164,0,0.318-0.007,0.466-0.02c0.146-0.014,0.297-0.028,0.455-0.041v-0.982c-0.048,0.007-0.099,0.012-0.153,0.015
		c-0.056,0.003-0.11,0.005-0.164,0.005c-0.205,0-0.34-0.046-0.404-0.138c-0.066-0.092-0.097-0.247-0.097-0.465v-2.977h0.818v-0.962
		h-0.818v-1.575h-1.412V80.872z M134.942,84.575v0.195c0,0.266,0.031,0.506,0.093,0.721c0.061,0.215,0.168,0.399,0.322,0.552
		c0.153,0.154,0.359,0.271,0.619,0.353c0.259,0.082,0.589,0.123,0.992,0.123c0.293,0,0.566-0.036,0.818-0.107
		c0.252-0.072,0.469-0.179,0.65-0.323c0.18-0.143,0.322-0.324,0.425-0.542c0.102-0.218,0.153-0.47,0.153-0.757
		c0-0.416-0.092-0.745-0.276-0.987c-0.184-0.242-0.498-0.438-0.941-0.588l-0.849-0.287c-0.24-0.074-0.401-0.166-0.486-0.276
		c-0.086-0.109-0.128-0.232-0.128-0.368c0-0.198,0.066-0.346,0.199-0.445c0.133-0.099,0.288-0.149,0.466-0.149
		c0.231,0,0.394,0.067,0.486,0.2c0.092,0.133,0.138,0.343,0.138,0.629h1.268v-0.225c0-0.498-0.153-0.883-0.46-1.156
		c-0.307-0.273-0.782-0.409-1.422-0.409c-0.362,0-0.67,0.044-0.926,0.133c-0.256,0.089-0.465,0.207-0.629,0.358
		c-0.164,0.15-0.283,0.325-0.358,0.527c-0.076,0.201-0.113,0.414-0.113,0.639c0,0.389,0.099,0.708,0.297,0.957
		c0.198,0.248,0.491,0.442,0.88,0.578l0.992,0.358c0.136,0.054,0.256,0.128,0.358,0.22c0.103,0.092,0.154,0.227,0.154,0.404
		c0,0.218-0.066,0.381-0.195,0.491c-0.13,0.109-0.304,0.163-0.521,0.163c-0.24,0-0.422-0.073-0.548-0.22
		c-0.127-0.146-0.189-0.339-0.189-0.578v-0.184H134.942z M132.797,86.376h1.351v-5.504h-1.412v3.652c0,0.607-0.25,0.911-0.747,0.911
		c-0.212,0-0.365-0.057-0.46-0.169c-0.096-0.113-0.144-0.312-0.144-0.599v-3.795h-1.411v4.082c0,0.552,0.12,0.951,0.363,1.197
		c0.241,0.245,0.588,0.368,1.038,0.368c0.307,0,0.579-0.063,0.819-0.189c0.238-0.126,0.432-0.326,0.583-0.599h0.02V86.376z
		 M126.247,82.846c0.013-0.238,0.046-0.443,0.097-0.613c0.051-0.171,0.126-0.304,0.225-0.399c0.098-0.095,0.237-0.144,0.415-0.144
		c0.286,0,0.483,0.151,0.593,0.451c0.108,0.299,0.164,0.794,0.164,1.483c0,0.688-0.056,1.184-0.164,1.483
		c-0.11,0.3-0.307,0.45-0.593,0.45c-0.178,0-0.317-0.048-0.415-0.143c-0.099-0.095-0.174-0.228-0.225-0.399
		c-0.051-0.171-0.084-0.375-0.097-0.614c-0.014-0.238-0.021-0.498-0.021-0.777S126.233,83.085,126.247,82.846 M124.917,84.892
		c0.068,0.362,0.184,0.665,0.348,0.911c0.164,0.245,0.385,0.428,0.665,0.547c0.279,0.12,0.63,0.176,1.054,0.169
		c0.402,0,0.741-0.063,1.017-0.189c0.277-0.126,0.5-0.31,0.67-0.553c0.17-0.242,0.293-0.544,0.369-0.905
		c0.074-0.361,0.112-0.777,0.112-1.248c0-0.478-0.035-0.898-0.102-1.263c-0.069-0.366-0.184-0.671-0.348-0.916
		c-0.164-0.246-0.386-0.428-0.665-0.547c-0.28-0.12-0.631-0.176-1.053-0.169c-0.404,0-0.742,0.063-1.018,0.189
		c-0.277,0.126-0.501,0.31-0.67,0.553c-0.171,0.242-0.294,0.544-0.369,0.905c-0.075,0.361-0.112,0.777-0.112,1.248
		C124.815,84.108,124.849,84.531,124.917,84.892 M124.186,82.857c0-0.655-0.166-1.174-0.497-1.555
		c-0.331-0.382-0.823-0.573-1.478-0.573c-0.327,0-0.628,0.044-0.9,0.133c-0.273,0.089-0.508,0.243-0.706,0.465
		c-0.198,0.222-0.352,0.519-0.46,0.89c-0.11,0.372-0.164,0.841-0.164,1.407c0,0.552,0.044,1.015,0.133,1.386
		c0.088,0.371,0.22,0.668,0.394,0.89c0.174,0.222,0.392,0.381,0.655,0.476c0.262,0.095,0.57,0.143,0.925,0.143
		c0.75,0,1.287-0.194,1.612-0.583c0.323-0.389,0.486-0.944,0.486-1.668h-1.351c0,0.451-0.055,0.778-0.163,0.983
		c-0.11,0.204-0.284,0.306-0.522,0.306c-0.158,0-0.286-0.035-0.384-0.107c-0.099-0.072-0.176-0.186-0.23-0.343
		c-0.055-0.156-0.092-0.356-0.113-0.598c-0.02-0.243-0.03-0.534-0.03-0.875c0-0.314,0.01-0.59,0.03-0.828
		c0.021-0.239,0.058-0.435,0.113-0.589c0.054-0.153,0.134-0.269,0.24-0.348c0.106-0.078,0.247-0.117,0.425-0.117
		c0.129,0,0.236,0.033,0.322,0.097c0.085,0.064,0.15,0.15,0.195,0.256c0.044,0.105,0.074,0.225,0.092,0.358
		c0.016,0.133,0.025,0.264,0.025,0.394H124.186z M113.975,86.376h1.535l0.337-1.545h1.944l0.337,1.545h1.535l-1.934-7.304h-1.821
		L113.975,86.376z M116.809,80.34h0.02l0.706,3.284h-1.432L116.809,80.34z M108.292,82.268c0.092-0.303,0.292-0.455,0.599-0.455
		c0.313,0,0.516,0.152,0.608,0.455c0.092,0.304,0.138,0.755,0.138,1.356c0,0.6-0.046,1.052-0.138,1.355
		c-0.092,0.304-0.295,0.456-0.608,0.456c-0.307,0-0.507-0.152-0.599-0.456c-0.092-0.303-0.138-0.755-0.138-1.355
		C108.154,83.023,108.2,82.572,108.292,82.268 M109.699,86.376h1.35v-7.304h-1.412v2.312h-0.02c-0.15-0.218-0.319-0.382-0.506-0.491
		c-0.189-0.11-0.415-0.164-0.681-0.164c-0.58,0-1.006,0.227-1.278,0.68c-0.274,0.453-0.41,1.192-0.41,2.215s0.136,1.762,0.41,2.215
		c0.272,0.453,0.698,0.68,1.278,0.68c0.287,0,0.527-0.056,0.722-0.169c0.194-0.112,0.369-0.298,0.526-0.557h0.021V86.376z
		 M101.697,86.376h1.412v-3.652c0-0.607,0.248-0.911,0.746-0.911c0.211,0,0.365,0.056,0.461,0.169
		c0.095,0.113,0.143,0.312,0.143,0.598v3.796h1.412v-4.082c0-0.552-0.122-0.951-0.363-1.197c-0.243-0.245-0.589-0.368-1.039-0.368
		c-0.307,0-0.58,0.063-0.818,0.189c-0.24,0.126-0.434,0.325-0.583,0.599h-0.021v-0.645h-1.35V86.376z M99.318,84.708
		c0,0.157-0.027,0.289-0.081,0.394c-0.055,0.106-0.125,0.192-0.21,0.261s-0.179,0.118-0.281,0.148
		c-0.103,0.031-0.202,0.046-0.297,0.046c-0.191,0-0.327-0.074-0.409-0.225c-0.082-0.15-0.123-0.33-0.123-0.542
		c0-0.245,0.061-0.44,0.184-0.583c0.123-0.143,0.327-0.245,0.614-0.307c0.089-0.02,0.187-0.053,0.297-0.097
		c0.109-0.044,0.211-0.104,0.306-0.179V84.708z M98.009,82.56v-0.153c0-0.218,0.054-0.392,0.164-0.522
		c0.109-0.13,0.273-0.195,0.491-0.195c0.238,0,0.407,0.06,0.506,0.179c0.099,0.12,0.148,0.285,0.148,0.497
		c0,0.184-0.04,0.324-0.122,0.419s-0.228,0.171-0.44,0.225l-0.798,0.215c-0.246,0.068-0.455,0.146-0.629,0.235
		c-0.174,0.089-0.317,0.2-0.43,0.333c-0.113,0.133-0.196,0.293-0.251,0.481c-0.054,0.187-0.081,0.411-0.081,0.67
		c0,0.184,0.023,0.37,0.071,0.557c0.048,0.187,0.123,0.356,0.225,0.507c0.103,0.15,0.239,0.273,0.409,0.368
		c0.171,0.095,0.379,0.143,0.624,0.143c0.341,0,0.619-0.048,0.834-0.143c0.215-0.095,0.404-0.287,0.568-0.573h0.02
		c0.021,0.095,0.043,0.192,0.067,0.291c0.023,0.1,0.059,0.193,0.107,0.282h1.351c-0.069-0.164-0.115-0.317-0.138-0.461
		c-0.024-0.143-0.036-0.344-0.036-0.603v-2.895c0-0.246-0.026-0.473-0.077-0.681c-0.051-0.207-0.148-0.386-0.291-0.537
		c-0.144-0.15-0.346-0.266-0.609-0.347c-0.263-0.082-0.602-0.123-1.018-0.123c-0.266,0-0.517,0.028-0.752,0.087
		c-0.235,0.058-0.44,0.153-0.614,0.286c-0.174,0.133-0.312,0.309-0.414,0.527c-0.102,0.218-0.154,0.484-0.154,0.798v0.133H98.009z"
		/>
	<path fill="#00549F" d="M173.004,76.577h0.573c0.327,0,0.598-0.023,0.813-0.071s0.399-0.148,0.552-0.302
		c0.154-0.153,0.307-0.427,0.461-0.818c0.153-0.392,0.25-0.718,0.291-0.977l1.33-5.136h-1.412l-0.716,3.806h-0.02l-0.819-3.806
		h-1.473l1.545,5.504c-0.02,0.246-0.087,0.437-0.199,0.573c-0.113,0.136-0.298,0.204-0.558,0.204c-0.123,0-0.246-0.01-0.368-0.03
		V76.577z M170.584,69.273v0.614h-0.02c-0.136-0.286-0.31-0.484-0.522-0.593c-0.211-0.11-0.415-0.164-0.614-0.164
		c-0.381,0-0.686,0.085-0.915,0.256c-0.228,0.171-0.402,0.391-0.522,0.66c-0.119,0.269-0.197,0.57-0.235,0.905
		c-0.037,0.334-0.057,0.662-0.057,0.982c0,1.003,0.143,1.717,0.425,2.143c0.283,0.427,0.705,0.64,1.263,0.64
		c0.225,0,0.442-0.062,0.65-0.185c0.209-0.122,0.384-0.286,0.527-0.491h0.02v0.727c0,0.286-0.057,0.524-0.174,0.711
		c-0.115,0.187-0.317,0.281-0.603,0.281c-0.088,0-0.172-0.013-0.251-0.041c-0.078-0.027-0.151-0.064-0.22-0.112
		c-0.143-0.103-0.215-0.243-0.215-0.42h-1.35c0,0.471,0.163,0.834,0.486,1.09c0.324,0.255,0.787,0.383,1.386,0.383
		c0.826,0,1.414-0.176,1.765-0.527c0.352-0.35,0.527-0.895,0.527-1.631v-5.228H170.584z M169.137,71.263
		c0.017-0.256,0.053-0.46,0.107-0.614c0.055-0.153,0.13-0.264,0.225-0.332c0.096-0.069,0.222-0.103,0.379-0.103
		c0.28,0,0.472,0.141,0.578,0.42c0.106,0.279,0.158,0.754,0.158,1.422c0,0.232-0.011,0.445-0.036,0.639
		c-0.023,0.195-0.064,0.36-0.122,0.496s-0.136,0.244-0.236,0.323c-0.098,0.078-0.223,0.117-0.373,0.117
		c-0.149,0-0.271-0.039-0.363-0.117c-0.092-0.079-0.164-0.185-0.215-0.318s-0.085-0.284-0.102-0.455s-0.026-0.351-0.026-0.542
		C169.111,71.831,169.12,71.519,169.137,71.263 M164.089,71.248c0.015-0.239,0.046-0.443,0.097-0.614
		c0.052-0.171,0.127-0.304,0.225-0.399c0.1-0.095,0.238-0.143,0.415-0.143c0.286,0,0.485,0.15,0.593,0.45
		c0.11,0.3,0.164,0.795,0.164,1.483c0,0.689-0.054,1.184-0.164,1.483c-0.108,0.3-0.307,0.451-0.593,0.451
		c-0.177,0-0.315-0.048-0.415-0.144c-0.098-0.095-0.173-0.228-0.225-0.399c-0.051-0.17-0.082-0.375-0.097-0.613
		c-0.013-0.239-0.02-0.499-0.02-0.778C164.069,71.746,164.076,71.486,164.089,71.248 M162.759,73.294
		c0.069,0.361,0.184,0.665,0.348,0.91c0.164,0.246,0.386,0.428,0.665,0.547c0.28,0.12,0.631,0.176,1.054,0.169
		c0.403,0,0.741-0.063,1.018-0.189c0.276-0.126,0.5-0.31,0.67-0.552c0.171-0.243,0.293-0.545,0.368-0.906
		c0.076-0.361,0.113-0.777,0.113-1.248c0-0.478-0.034-0.898-0.103-1.263c-0.067-0.366-0.184-0.67-0.348-0.916
		c-0.163-0.245-0.384-0.427-0.664-0.547c-0.28-0.12-0.631-0.176-1.054-0.169c-0.402,0-0.742,0.063-1.018,0.189
		c-0.276,0.126-0.499,0.31-0.67,0.553c-0.17,0.242-0.293,0.544-0.368,0.905c-0.075,0.361-0.113,0.778-0.113,1.248
		C162.657,72.509,162.692,72.933,162.759,73.294 M160.379,74.777h1.412v-7.304h-1.412V74.777z M156.618,71.248
		c0.015-0.239,0.046-0.443,0.097-0.614c0.052-0.171,0.127-0.304,0.225-0.399c0.1-0.095,0.238-0.143,0.415-0.143
		c0.286,0,0.485,0.15,0.593,0.45c0.11,0.3,0.164,0.795,0.164,1.483c0,0.689-0.054,1.184-0.164,1.483
		c-0.108,0.3-0.307,0.451-0.593,0.451c-0.177,0-0.315-0.048-0.415-0.144c-0.098-0.095-0.173-0.228-0.225-0.399
		c-0.051-0.17-0.082-0.375-0.097-0.613c-0.013-0.239-0.02-0.499-0.02-0.778C156.598,71.746,156.605,71.486,156.618,71.248
		 M155.288,73.294c0.069,0.361,0.184,0.665,0.348,0.91c0.164,0.246,0.386,0.428,0.665,0.547c0.28,0.12,0.631,0.176,1.054,0.169
		c0.403,0,0.741-0.063,1.018-0.189c0.276-0.126,0.5-0.31,0.67-0.552c0.171-0.243,0.293-0.545,0.368-0.906
		c0.076-0.361,0.113-0.777,0.113-1.248c0-0.478-0.034-0.898-0.103-1.263c-0.067-0.366-0.184-0.67-0.348-0.916
		c-0.163-0.245-0.384-0.427-0.664-0.547c-0.28-0.12-0.631-0.176-1.054-0.169c-0.402,0-0.742,0.063-1.018,0.189
		c-0.276,0.126-0.499,0.31-0.67,0.553c-0.17,0.242-0.293,0.544-0.368,0.905c-0.075,0.361-0.113,0.778-0.113,1.248
		C155.186,72.509,155.221,72.933,155.288,73.294 M150.178,74.777h1.412v-3.652c0-0.607,0.25-0.911,0.747-0.911
		c0.212,0,0.365,0.057,0.46,0.169c0.097,0.113,0.144,0.312,0.144,0.599v3.795h1.411v-4.082c0-0.552-0.12-0.951-0.363-1.197
		c-0.241-0.245-0.588-0.368-1.038-0.368c-0.307,0-0.579,0.063-0.819,0.189c-0.238,0.126-0.432,0.326-0.583,0.599h-0.02v-0.645
		h-1.351V74.777z M145.006,74.777h1.412v-3.652c0-0.607,0.25-0.911,0.747-0.911c0.211,0,0.365,0.057,0.46,0.169
		c0.096,0.113,0.143,0.312,0.143,0.599v3.795h1.412v-4.082c0-0.552-0.121-0.951-0.363-1.197c-0.242-0.245-0.588-0.368-1.039-0.368
		c-0.619,0-1.067,0.235-1.34,0.706h-0.02v-2.363h-1.412V74.777z M144.2,71.258c0-0.655-0.165-1.174-0.496-1.555
		c-0.331-0.382-0.823-0.573-1.478-0.573c-0.328,0-0.627,0.044-0.9,0.133c-0.273,0.089-0.508,0.243-0.707,0.465
		c-0.197,0.222-0.35,0.519-0.459,0.89c-0.109,0.372-0.165,0.841-0.165,1.407c0,0.553,0.045,1.015,0.134,1.386
		c0.088,0.372,0.219,0.668,0.393,0.89c0.174,0.222,0.393,0.381,0.655,0.476c0.263,0.095,0.572,0.143,0.926,0.143
		c0.751,0,1.288-0.194,1.612-0.583c0.323-0.389,0.485-0.944,0.485-1.667h-1.349c0,0.45-0.056,0.777-0.164,0.982
		c-0.109,0.204-0.283,0.307-0.523,0.307c-0.156,0-0.284-0.036-0.383-0.108c-0.099-0.071-0.175-0.186-0.23-0.343
		c-0.055-0.156-0.093-0.356-0.112-0.598c-0.022-0.242-0.031-0.534-0.031-0.875c0-0.314,0.009-0.59,0.031-0.828
		c0.019-0.239,0.057-0.435,0.112-0.589c0.055-0.153,0.134-0.269,0.241-0.347c0.105-0.079,0.246-0.118,0.423-0.118
		c0.13,0,0.238,0.033,0.323,0.097c0.086,0.065,0.15,0.151,0.195,0.256c0.044,0.105,0.075,0.225,0.091,0.358
		c0.017,0.133,0.027,0.264,0.027,0.394H144.2z M136.58,71.401v-0.215c0-0.13,0.011-0.259,0.035-0.388
		c0.024-0.13,0.063-0.248,0.118-0.353c0.054-0.106,0.128-0.192,0.22-0.256c0.092-0.065,0.21-0.097,0.353-0.097
		c0.143,0,0.261,0.028,0.353,0.087c0.092,0.058,0.164,0.143,0.215,0.255c0.051,0.113,0.087,0.249,0.107,0.41
		c0.021,0.16,0.034,0.345,0.041,0.557H136.58z M139.372,72.24v-0.317c0-0.423-0.027-0.806-0.081-1.151
		c-0.056-0.345-0.158-0.637-0.307-0.88c-0.151-0.242-0.357-0.429-0.619-0.562c-0.263-0.133-0.599-0.2-1.008-0.2
		c-0.478,0-0.859,0.079-1.146,0.235c-0.286,0.157-0.506,0.369-0.659,0.635c-0.154,0.266-0.256,0.569-0.307,0.91
		c-0.052,0.341-0.077,0.696-0.077,1.064c0,0.341,0.015,0.687,0.046,1.038c0.031,0.351,0.114,0.668,0.251,0.952
		c0.136,0.283,0.347,0.513,0.634,0.69c0.286,0.177,0.685,0.266,1.197,0.266c0.675,0,1.169-0.172,1.483-0.516
		c0.313-0.345,0.484-0.837,0.512-1.479h-1.269c-0.041,0.348-0.117,0.607-0.225,0.778c-0.109,0.171-0.283,0.256-0.522,0.256
		c-0.13,0-0.239-0.036-0.327-0.108c-0.089-0.071-0.161-0.167-0.215-0.286c-0.055-0.12-0.094-0.256-0.118-0.409
		c-0.024-0.154-0.035-0.312-0.035-0.476v-0.44H139.372z M130.63,67.473v1.207h1.596v6.097h1.473V68.68h1.596v-1.207H130.63z
		 M126.18,69.273v0.614h-0.021c-0.137-0.286-0.311-0.484-0.521-0.593c-0.212-0.11-0.417-0.164-0.614-0.164
		c-0.383,0-0.688,0.085-0.916,0.256c-0.229,0.171-0.403,0.391-0.522,0.66c-0.119,0.269-0.198,0.57-0.235,0.905
		c-0.038,0.334-0.056,0.662-0.056,0.982c0,1.003,0.141,1.717,0.424,2.143c0.283,0.427,0.704,0.64,1.264,0.64
		c0.225,0,0.441-0.062,0.649-0.185c0.208-0.122,0.384-0.286,0.527-0.491h0.021v0.727c0,0.286-0.059,0.524-0.174,0.711
		c-0.117,0.187-0.317,0.281-0.604,0.281c-0.089,0-0.173-0.013-0.25-0.041c-0.079-0.027-0.153-0.064-0.22-0.112
		c-0.143-0.103-0.215-0.243-0.215-0.42h-1.35c0,0.471,0.161,0.834,0.485,1.09c0.324,0.255,0.786,0.383,1.387,0.383
		c0.824,0,1.412-0.176,1.764-0.527c0.351-0.35,0.527-0.895,0.527-1.631v-5.228H126.18z M124.732,71.263
		c0.017-0.256,0.052-0.46,0.108-0.614c0.054-0.153,0.129-0.264,0.225-0.332c0.095-0.069,0.221-0.103,0.378-0.103
		c0.28,0,0.472,0.141,0.578,0.42c0.106,0.279,0.159,0.754,0.159,1.422c0,0.232-0.012,0.445-0.036,0.639
		c-0.025,0.195-0.065,0.36-0.123,0.496s-0.137,0.244-0.235,0.323c-0.099,0.078-0.224,0.117-0.373,0.117
		c-0.151,0-0.272-0.039-0.364-0.117c-0.092-0.079-0.163-0.185-0.214-0.318c-0.052-0.133-0.086-0.284-0.103-0.455
		c-0.017-0.171-0.025-0.351-0.025-0.542C124.707,71.831,124.715,71.519,124.732,71.263 M118.251,74.777h1.411v-3.652
		c0-0.607,0.249-0.911,0.747-0.911c0.211,0,0.364,0.057,0.46,0.169c0.096,0.113,0.144,0.312,0.144,0.599v3.795h1.411v-4.082
		c0-0.552-0.121-0.951-0.363-1.197c-0.242-0.245-0.588-0.368-1.038-0.368c-0.307,0-0.58,0.063-0.819,0.189
		c-0.239,0.126-0.433,0.326-0.583,0.599h-0.02v-0.645h-1.35V74.777z M115.813,74.777h1.412v-5.504h-1.412V74.777z M115.813,68.598
		h1.412v-1.207h-1.412V68.598z M112.273,74.777h1.412v-3.304c0-0.184,0.031-0.34,0.092-0.466c0.061-0.126,0.143-0.228,0.245-0.307
		c0.103-0.078,0.215-0.135,0.338-0.168c0.123-0.034,0.246-0.052,0.368-0.052c0.075,0,0.149,0.002,0.22,0.005
		c0.072,0.004,0.145,0.009,0.22,0.016V69.15c-0.041-0.007-0.084-0.012-0.128-0.015c-0.045-0.003-0.087-0.005-0.128-0.005
		c-0.293,0-0.542,0.08-0.746,0.24c-0.205,0.161-0.379,0.374-0.522,0.64h-0.021v-0.737h-1.35V74.777z M109.895,73.11
		c0,0.156-0.028,0.288-0.082,0.393c-0.054,0.106-0.125,0.193-0.21,0.261c-0.085,0.069-0.179,0.118-0.281,0.149
		c-0.103,0.03-0.202,0.046-0.297,0.046c-0.191,0-0.327-0.075-0.409-0.225c-0.082-0.151-0.123-0.331-0.123-0.543
		c0-0.245,0.061-0.44,0.184-0.583c0.123-0.143,0.328-0.245,0.614-0.307c0.089-0.02,0.187-0.053,0.297-0.097
		c0.109-0.044,0.211-0.104,0.307-0.179V73.11z M108.585,70.961v-0.153c0-0.218,0.054-0.392,0.164-0.522
		c0.109-0.13,0.273-0.194,0.491-0.194c0.238,0,0.407,0.059,0.506,0.179c0.1,0.119,0.149,0.284,0.149,0.496
		c0,0.184-0.041,0.324-0.123,0.419s-0.228,0.171-0.44,0.225l-0.798,0.215c-0.245,0.069-0.455,0.146-0.629,0.235
		c-0.174,0.089-0.317,0.2-0.43,0.333c-0.112,0.133-0.196,0.294-0.25,0.481c-0.055,0.187-0.082,0.411-0.082,0.67
		c0,0.184,0.023,0.37,0.071,0.557c0.048,0.188,0.123,0.356,0.225,0.507c0.103,0.15,0.239,0.273,0.41,0.368
		c0.17,0.095,0.378,0.143,0.624,0.143c0.34,0,0.619-0.048,0.833-0.143c0.215-0.095,0.404-0.286,0.568-0.573h0.021
		c0.02,0.095,0.043,0.192,0.066,0.292c0.024,0.099,0.059,0.192,0.108,0.281h1.35c-0.069-0.164-0.115-0.317-0.138-0.46
		c-0.024-0.144-0.036-0.345-0.036-0.604v-2.895c0-0.246-0.026-0.473-0.077-0.68c-0.051-0.208-0.148-0.387-0.291-0.537
		c-0.144-0.151-0.346-0.266-0.609-0.348s-0.602-0.123-1.018-0.123c-0.266,0-0.516,0.029-0.752,0.087
		c-0.235,0.058-0.44,0.153-0.614,0.286c-0.173,0.133-0.312,0.309-0.414,0.527c-0.102,0.218-0.153,0.484-0.153,0.798v0.133H108.585z
		 M103.756,71.401v-0.215c0-0.13,0.012-0.259,0.035-0.388c0.024-0.13,0.064-0.248,0.118-0.353c0.054-0.106,0.128-0.192,0.22-0.256
		c0.092-0.065,0.21-0.097,0.353-0.097c0.143,0,0.261,0.028,0.353,0.087c0.092,0.058,0.164,0.143,0.215,0.255
		c0.051,0.113,0.087,0.249,0.107,0.41c0.021,0.16,0.034,0.345,0.041,0.557H103.756z M106.548,72.24v-0.317
		c0-0.423-0.027-0.806-0.081-1.151c-0.055-0.345-0.157-0.637-0.307-0.88c-0.151-0.242-0.356-0.429-0.619-0.562
		c-0.263-0.133-0.599-0.2-1.008-0.2c-0.478,0-0.859,0.079-1.146,0.235c-0.286,0.157-0.506,0.369-0.66,0.635
		c-0.153,0.266-0.255,0.569-0.306,0.91c-0.052,0.341-0.077,0.696-0.077,1.064c0,0.341,0.015,0.687,0.046,1.038
		c0.031,0.351,0.114,0.668,0.25,0.952c0.137,0.283,0.348,0.513,0.635,0.69c0.286,0.177,0.685,0.266,1.197,0.266
		c0.675,0,1.169-0.172,1.483-0.516c0.314-0.345,0.484-0.837,0.512-1.479h-1.269c-0.041,0.348-0.116,0.607-0.225,0.778
		c-0.11,0.171-0.283,0.256-0.522,0.256c-0.13,0-0.238-0.036-0.327-0.108c-0.089-0.071-0.161-0.167-0.215-0.286
		c-0.054-0.12-0.094-0.256-0.118-0.409c-0.023-0.154-0.035-0.312-0.035-0.476v-0.44H106.548z M96.792,74.777h1.473v-3.243h1.719
		v3.243h1.473v-7.304h-1.473v2.793h-1.719v-2.793h-1.473V74.777z"/>
	<path fill="#00549F" d="M141.778,63.178h1.412v-3.305c0-0.184,0.03-0.339,0.092-0.465c0.061-0.127,0.143-0.229,0.245-0.307
		c0.102-0.079,0.215-0.135,0.338-0.169c0.122-0.035,0.245-0.051,0.368-0.051c0.075,0,0.148,0.001,0.22,0.005
		c0.072,0.003,0.144,0.008,0.22,0.015v-1.35c-0.041-0.007-0.084-0.012-0.128-0.015c-0.045-0.004-0.087-0.005-0.128-0.005
		c-0.293,0-0.542,0.079-0.747,0.24c-0.204,0.16-0.378,0.373-0.521,0.639h-0.021v-0.736h-1.35V63.178z M138.051,59.648
		c0.013-0.239,0.046-0.444,0.097-0.614c0.051-0.17,0.126-0.303,0.225-0.399c0.098-0.096,0.237-0.143,0.415-0.143
		c0.286,0,0.483,0.15,0.593,0.45c0.108,0.3,0.164,0.794,0.164,1.484c0,0.688-0.056,1.182-0.164,1.483
		c-0.11,0.3-0.307,0.45-0.593,0.45c-0.178,0-0.317-0.048-0.415-0.143c-0.099-0.096-0.174-0.229-0.225-0.399
		c-0.051-0.171-0.084-0.375-0.097-0.614c-0.014-0.239-0.02-0.498-0.02-0.777C138.031,60.145,138.037,59.887,138.051,59.648
		 M136.721,61.694c0.068,0.361,0.184,0.665,0.348,0.911c0.164,0.245,0.385,0.427,0.665,0.547c0.279,0.119,0.63,0.175,1.054,0.169
		c0.402,0,0.741-0.064,1.017-0.189c0.277-0.127,0.5-0.311,0.67-0.553c0.17-0.242,0.293-0.544,0.369-0.905
		c0.074-0.362,0.112-0.778,0.112-1.248c0-0.478-0.034-0.9-0.102-1.264c-0.069-0.365-0.184-0.67-0.348-0.915
		c-0.163-0.246-0.385-0.429-0.665-0.548s-0.631-0.176-1.053-0.168c-0.404,0-0.742,0.062-1.018,0.189
		c-0.277,0.126-0.501,0.31-0.67,0.552c-0.171,0.242-0.294,0.543-0.369,0.906c-0.075,0.361-0.112,0.777-0.112,1.248
		C136.619,60.91,136.653,61.332,136.721,61.694 M133.986,63.178h1.411v-4.543h0.819v-0.961h-0.819v-0.481
		c0-0.158,0.041-0.27,0.123-0.338s0.221-0.102,0.42-0.102h0.133c0.061,0,0.108,0.003,0.143,0.01v-1.002
		c-0.26-0.021-0.512-0.031-0.757-0.031c-0.225,0-0.43,0.022-0.614,0.067c-0.184,0.044-0.34,0.117-0.466,0.22
		c-0.126,0.102-0.224,0.238-0.291,0.409c-0.069,0.17-0.102,0.378-0.102,0.624v0.624h-0.717v0.961h0.717V63.178z M127.694,59.802
		v-0.215c0-0.13,0.011-0.26,0.036-0.389c0.023-0.13,0.062-0.247,0.118-0.353c0.054-0.106,0.127-0.191,0.219-0.256
		c0.093-0.065,0.21-0.097,0.353-0.097c0.144,0,0.261,0.029,0.353,0.087c0.092,0.057,0.164,0.143,0.215,0.256
		c0.051,0.112,0.087,0.248,0.108,0.409c0.02,0.16,0.033,0.346,0.041,0.558H127.694z M130.487,60.641v-0.318
		c0-0.423-0.028-0.807-0.082-1.151c-0.055-0.344-0.157-0.638-0.307-0.879c-0.15-0.243-0.357-0.43-0.619-0.563
		c-0.263-0.133-0.598-0.199-1.007-0.199c-0.478,0-0.86,0.077-1.146,0.235c-0.287,0.156-0.507,0.368-0.66,0.634
		c-0.153,0.266-0.256,0.569-0.307,0.911c-0.051,0.34-0.077,0.695-0.077,1.064c0,0.34,0.016,0.686,0.046,1.038
		c0.031,0.351,0.114,0.668,0.251,0.951c0.136,0.283,0.348,0.513,0.634,0.691c0.287,0.177,0.686,0.266,1.197,0.266
		c0.675,0,1.169-0.173,1.484-0.517c0.313-0.345,0.483-0.838,0.511-1.478h-1.268c-0.041,0.348-0.117,0.607-0.226,0.777
		c-0.109,0.17-0.283,0.256-0.521,0.256c-0.13,0-0.24-0.036-0.328-0.107c-0.089-0.072-0.16-0.168-0.214-0.287
		c-0.056-0.119-0.095-0.255-0.118-0.409c-0.025-0.153-0.036-0.312-0.036-0.476v-0.439H130.487z M123.634,57.674h-0.716v0.961h0.716
		v3.151c0,0.28,0.016,0.512,0.051,0.696c0.034,0.184,0.097,0.332,0.189,0.445c0.092,0.112,0.223,0.192,0.394,0.24
		c0.17,0.047,0.395,0.072,0.675,0.072c0.164,0,0.318-0.007,0.466-0.021c0.146-0.014,0.297-0.027,0.455-0.04v-0.983
		c-0.048,0.007-0.099,0.012-0.154,0.016c-0.054,0.003-0.109,0.005-0.163,0.005c-0.205,0-0.34-0.046-0.404-0.138
		c-0.066-0.092-0.097-0.248-0.097-0.466v-2.977h0.818v-0.961h-0.818v-1.576h-1.412V57.674z M120.939,63.178h1.351v-5.504h-1.412
		v3.652c0,0.607-0.25,0.91-0.747,0.91c-0.212,0-0.365-0.056-0.46-0.168c-0.095-0.113-0.144-0.312-0.144-0.599v-3.795h-1.411v4.082
		c0,0.552,0.12,0.951,0.363,1.196c0.241,0.246,0.588,0.369,1.038,0.369c0.307,0,0.579-0.064,0.819-0.189
		c0.238-0.127,0.432-0.327,0.583-0.599h0.02V63.178z M115.283,57.674h-0.716v0.961h0.716v3.151c0,0.28,0.017,0.512,0.051,0.696
		c0.034,0.184,0.097,0.332,0.189,0.445c0.093,0.112,0.223,0.192,0.394,0.24c0.171,0.047,0.396,0.072,0.675,0.072
		c0.164,0,0.32-0.007,0.466-0.021c0.146-0.014,0.299-0.027,0.455-0.04v-0.983c-0.048,0.007-0.099,0.012-0.153,0.016
		c-0.055,0.003-0.11,0.005-0.164,0.005c-0.205,0-0.34-0.046-0.404-0.138s-0.097-0.248-0.097-0.466v-2.977h0.818v-0.961h-0.818
		v-1.576h-1.412V57.674z M112.499,63.178h1.412v-5.504h-1.412V63.178z M112.499,56.999h1.412v-1.207h-1.412V56.999z M109.596,57.674
		h-0.716v0.961h0.716v3.151c0,0.28,0.018,0.512,0.051,0.696c0.035,0.184,0.097,0.332,0.19,0.445c0.092,0.112,0.224,0.192,0.393,0.24
		c0.171,0.047,0.396,0.072,0.676,0.072c0.163,0,0.319-0.007,0.465-0.021c0.147-0.014,0.299-0.027,0.455-0.04v-0.983
		c-0.047,0.007-0.098,0.012-0.153,0.016c-0.054,0.003-0.109,0.005-0.164,0.005c-0.204,0-0.338-0.046-0.404-0.138
		c-0.064-0.092-0.097-0.248-0.097-0.466v-2.977h0.818v-0.961h-0.818v-1.576h-1.412V57.674z M104.376,61.377v0.194
		c0,0.266,0.03,0.507,0.092,0.722c0.061,0.214,0.169,0.399,0.322,0.552c0.154,0.154,0.36,0.271,0.619,0.353
		c0.26,0.082,0.59,0.123,0.992,0.123c0.294,0,0.567-0.036,0.819-0.108c0.252-0.071,0.469-0.179,0.649-0.322
		c0.181-0.143,0.323-0.324,0.425-0.542c0.102-0.219,0.153-0.471,0.153-0.757c0-0.416-0.092-0.746-0.276-0.987
		c-0.184-0.243-0.497-0.439-0.941-0.589l-0.849-0.286c-0.239-0.076-0.4-0.168-0.486-0.276c-0.085-0.11-0.128-0.232-0.128-0.368
		c0-0.199,0.067-0.347,0.2-0.445c0.133-0.1,0.288-0.149,0.465-0.149c0.232,0,0.394,0.067,0.486,0.2
		c0.092,0.133,0.138,0.342,0.138,0.629h1.269v-0.225c0-0.498-0.154-0.884-0.461-1.156c-0.307-0.273-0.78-0.409-1.422-0.409
		c-0.361,0-0.67,0.044-0.926,0.133c-0.255,0.088-0.465,0.207-0.629,0.358c-0.163,0.149-0.282,0.325-0.358,0.526
		c-0.074,0.201-0.112,0.415-0.112,0.64c0,0.389,0.099,0.707,0.296,0.956c0.199,0.249,0.491,0.441,0.88,0.578l0.992,0.358
		c0.138,0.055,0.256,0.128,0.358,0.22c0.103,0.092,0.154,0.226,0.154,0.404c0,0.218-0.064,0.382-0.194,0.491
		c-0.129,0.109-0.303,0.164-0.522,0.164c-0.239,0-0.421-0.074-0.547-0.22c-0.126-0.147-0.19-0.339-0.19-0.578v-0.184H104.376z
		 M99.42,63.178h1.412v-3.653c0-0.607,0.25-0.91,0.747-0.91c0.212,0,0.365,0.056,0.46,0.169c0.096,0.112,0.143,0.312,0.143,0.598
		v3.796h1.412v-4.082c0-0.553-0.121-0.952-0.363-1.197c-0.241-0.246-0.588-0.368-1.038-0.368c-0.307,0-0.579,0.062-0.819,0.189
		c-0.238,0.126-0.432,0.325-0.583,0.598h-0.02v-0.644H99.42V63.178z M98.336,55.873h-1.473v7.304h1.473V55.873z"/>
</g>
<path fill="#00549F" d="M24.932,86.36h6.088V55.87h-6.088V86.36z M82.85,74.873h-5.919l5.75-13.708h0.085L82.85,74.873z
	 M89.318,86.36l-1.733-30.49H80.06L66.109,85.726V60.909h6.594V55.87H53.764h-0.338h-5.749v11.658h-7.103V55.87h-6.088v30.49h6.088
	V72.824h7.103V86.36h6.087V60.909h6.257V86.36h5.791h0.297h6.045l2.706-6.448h8.033l0.083,6.448H89.318z"/>
</svg>
